<svg xmlns="http://www.w3.org/2000/svg" viewBox="0 0 113.75 151.82"><defs><style>.cls-1{fill:#777776;}.cls-2{fill:#c4c4c2;}.cls-3{fill:#838384;}.cls-4{fill:#2d2d2d;}.cls-5{fill:#282828;}.cls-6{fill:#686859;}.cls-7{fill:#5b5b4d;}.cls-8{fill:#4c4c4a;}.cls-9{fill:#f4f0d7;}.cls-10{fill:#d3cec1;}.cls-11{fill:#9b9a97;}.cls-12{fill:#afafaf;}.cls-13{fill:#545454;}.cls-14{fill:#1d1d1b;}.cls-15{fill:#7f7f7c;}.cls-16{fill:#ce9a32;}.cls-17{fill:#cc5033;}.cls-18{fill:#9b9b9b;}.cls-19{fill:#60605f;}.cls-20{fill:#303030;}.cls-21{fill:#2c3135;}.cls-22{fill:#5d97a5;}.cls-23{fill:#202426;}.cls-24{fill:#868687;}.cls-25{fill:#666;}.cls-26{fill:#414142;}.cls-27{fill:#fff;}.cls-28{fill:#f7f7f7;}.cls-29{fill:#161616;}.cls-30{fill:#898989;}.cls-31{fill:#efefef;}.cls-32{fill:#d1d2d3;}.cls-33{fill:#b7432c;}.cls-34{fill:#ddbcb6;}.cls-35{fill:#dbdbdb;}</style></defs><title>trasnport_head2_logsta_web</title><g id="Ebene_2" data-name="Ebene 2"><g id="transport"><path class="cls-1" d="M95.46,145.44,84.1,137.69l1.21-.78,11.43,7.68Z"/><polygon class="cls-1" points="88.16 147.14 81.33 143.15 81.13 140.13 92.12 139.57 88.16 147.14"/><path class="cls-2" d="M88.85,147.84a1.54,1.54,0,0,1,.71,1.24c0,.83-.71.42-.71.42a1.54,1.54,0,0,1-.7-1.24c0-.42.18-.52.35-.52A.79.79,0,0,1,88.85,147.84Z"/><polygon class="cls-1" points="88.16 147.14 81.89 143.5 82.53 143.04 86.66 144.89 88.16 147.14"/><polygon class="cls-3" points="10.31 90.09 2.25 85.41 2.54 88.35 8.31 90.41 10.31 90.09"/><polygon class="cls-4" points="37.38 116.98 37.38 110.73 35.27 110.73 35.27 116.38 37.48 117.22 37.38 116.98"/><polygon class="cls-4" points="42.17 120.6 42.17 114.35 40.06 114.35 40.06 120 42.27 120.85 42.17 120.6"/><polygon class="cls-4" points="46.79 124.11 46.79 117.86 44.68 116.64 44.68 123.5 46.89 124.35 46.79 124.11"/><path class="cls-1" d="M107.48,137.38l-11.36-7.75,1.2-.78,11.44,7.68Z"/><polygon class="cls-5" points="62.8 117.48 75.13 126.33 73.47 140.78 53.57 130.51 62.8 117.48"/><polygon class="cls-5" points="60.6 128.35 51.12 122.9 30.8 110.97 13.66 103.21 18.8 97.08 60.47 116.28 60.6 128.35"/><polyline class="cls-6" points="112.26 129.11 81.06 111.61 95.85 95.24 113.13 96.33"/><path class="cls-7" d="M78.23,107.61l-.2-.11,13-15,18.48,1.73.17,0,.06,31ZM91.17,92.92,78.62,107.4l30.72,17.23,0-30Z"/><path class="cls-8" d="M88.52,143l0-28.41,24.15,14.2Z"/><polygon class="cls-9" points="100.64 124.1 100.64 112.26 100.34 112.44 88.57 119.36 88.57 131.2 100.64 124.1"/><polygon class="cls-10" points="100.64 112.26 90.58 106.34 77.58 113.96 88.57 119.36 100.64 112.26"/><polyline class="cls-11" points="96.62 114.63 96.62 119.36 94.61 120.55 94.61 115.81 96.62 114.63"/><polygon class="cls-11" points="96.62 112.26 92.59 114.63 90.58 113.44 94.61 111.08 96.62 112.26"/><polygon class="cls-12" points="112.26 96.53 112.26 97.86 89.06 111.39 89.06 110.15 112.26 96.53"/><polygon class="cls-13" points="112.72 128.83 112.72 95.69 88.52 109.83 88.52 143.04 89.05 142.72 89.05 110.15 112.26 96.53 112.26 129.11 112.72 128.83"/><polygon class="cls-14" points="112.72 128.83 112.72 130.35 88.52 144.59 88.52 143.04 112.72 128.83"/><polygon class="cls-15" points="111.22 97.14 111.21 97.93 105.05 101.44 105.05 100.76 111.22 97.14"/><polygon class="cls-15" points="103.27 101.77 103.26 102.56 97.1 106.06 97.1 105.39 103.27 101.77"/><polygon class="cls-15" points="96.15 105.96 96.14 106.75 89.98 110.26 89.98 109.58 96.15 105.96"/><polygon class="cls-8" points="112.02 130.76 112.02 133.14 88.16 147.14 88.16 144.28 88.52 144.59 112.02 130.76"/><polygon class="cls-8" points="111.71 131.83 111.6 133.31 107.02 135.94 107.06 134.56 111.71 131.83"/><polygon class="cls-14" points="107.06 134.56 106.27 134.11 106.26 135.48 107.02 135.94 107.06 134.56"/><polygon class="cls-14" points="111.71 131.83 110.93 131.32 106.27 134.11 107.06 134.56 111.71 131.83"/><polygon class="cls-16" points="111.71 131.83 111.6 133.31 110.26 134.07 110.31 132.66 111.71 131.83"/><polygon class="cls-17" points="110.12 132.76 110.09 134.17 108.67 134.99 108.72 133.59 110.12 132.76"/><polygon class="cls-17" points="108.56 133.69 108.51 135.08 107.12 135.88 107.16 134.51 108.56 133.69"/><path class="cls-8" d="M112.47,133.59h0a.31.31,0,0,1,.22-.09.8.8,0,0,1,.35.11,1.52,1.52,0,0,1,.7,1.24c0,.32-.11.45-.24.49L90.34,149l-1,.56-1.07-1.74Z"/><path class="cls-18" d="M0,100.42V86.94c0-1.82,1.45-1.57,1.45-1.57L12.2,91.66l5.93,3.57-7,7.52L3,98.05v5.34s-1-.49-2.12-1.12A1.81,1.81,0,0,1,0,100.42Z"/><polygon class="cls-4" points="2.59 101.98 2.59 98.39 0.63 97.21 0.63 100.76 2.59 101.98"/><polygon class="cls-19" points="0.63 100.76 1.63 100.19 2.59 100.69 2.59 101.98 0.63 100.76"/><polygon class="cls-8" points="1.63 100.19 1.63 97.8 0.63 97.21 0.63 100.76 1.63 100.19"/><path class="cls-4" d="M16.19,102.84c1.93,5.11-.55,6.92-.55,6.92L12.08,112l-1.85-3.82L9.3,97.65A7.86,7.86,0,0,1,16.19,102.84Z"/><path class="cls-8" d="M8.07,99.24s5.25,3.09,5.25,9.27-5.25,3.09-5.25,3.09-5.25-3.09-5.25-9.27S8.07,99.24,8.07,99.24Z"/><path class="cls-18" d="M7.77,101.52A7.17,7.17,0,0,1,11,107.35c0,3.88-3.24,1.94-3.24,1.94a7.17,7.17,0,0,1-3.24-5.83C4.53,99.57,7.77,101.52,7.77,101.52Z"/><path class="cls-8" d="M7.77,103.92A2.74,2.74,0,0,1,9,106.15c0,1.48-1.24.74-1.24.74a2.74,2.74,0,0,1-1.24-2.23C6.53,103.17,7.77,103.92,7.77,103.92Z"/><path class="cls-18" d="M11.09,104.69a8.75,8.75,0,0,0-3.8-5.51s-3.11-1.83-3.79,1L1.57,99.07C2.28,94,7.29,97,7.29,97A12.8,12.8,0,0,1,13,105.83Z"/><path class="cls-8" d="M3.64,96.12v0l4-2.37h0c1.72-.85,4.16.58,4.16.58a12.85,12.85,0,0,1,5.69,8.61L13,105.81A12.82,12.82,0,0,0,7.27,97s-2.17-1.27-3.86-.71Z"/><polygon class="cls-4" points="18.13 101.6 14.11 103.97 22.16 108.71 28.34 105.71 18.13 101.6"/><polygon class="cls-6" points="14.11 103.97 14.11 111.11 21.82 115.66 22.16 108.71 14.11 103.97"/><path class="cls-4" d="M32.77,112.44c1.93,5.12-.55,6.92-.55,6.92l-3.56,2.27-1.85-3.81-.93-10.56A7.84,7.84,0,0,1,32.77,112.44Z"/><path class="cls-8" d="M24.65,108.84s5.25,3.09,5.25,9.27-5.25,3.09-5.25,3.09-5.26-3.09-5.26-9.27S24.65,108.84,24.65,108.84Z"/><path class="cls-18" d="M24.35,111.12A7.17,7.17,0,0,1,27.59,117c0,3.88-3.24,1.94-3.24,1.94a7.17,7.17,0,0,1-3.24-5.83C21.11,109.18,24.35,111.12,24.35,111.12Z"/><path class="cls-8" d="M24.35,113.52a2.74,2.74,0,0,1,1.24,2.23c0,1.49-1.24.74-1.24.74a2.74,2.74,0,0,1-1.24-2.23C23.11,112.78,24.35,113.52,24.35,113.52Z"/><path class="cls-18" d="M27.66,114.3a8.72,8.72,0,0,0-3.79-5.52s-3.11-1.82-3.79,1l-1.94-1.14c.72-5,5.73-2.11,5.73-2.11a12.8,12.8,0,0,1,5.73,8.88Z"/><path class="cls-8" d="M20.22,105.72h0l4-2.38h0c1.72-.84,4.16.59,4.16.59a12.85,12.85,0,0,1,5.69,8.61l-4.5,2.88a12.82,12.82,0,0,0-5.72-8.83s-2.16-1.27-3.85-.7Z"/><polygon class="cls-6" points="47.43 123.75 47.43 126.12 32.08 117.08 32.08 114.72 47.43 123.75"/><polygon class="cls-8" points="32.06 114.73 33.02 114.19 48.34 123.2 48.34 126.23 47.43 126.12 47.43 123.75 32.06 114.73"/><path class="cls-4" d="M60.49,129.53c1.92,5.11-.56,6.92-.56,6.92l-3.56,2.27-1.85-3.82-.93-10.56A7.87,7.87,0,0,1,60.49,129.53Z"/><path class="cls-8" d="M52.36,125.93s5.26,3.09,5.26,9.27-5.26,3.09-5.26,3.09-5.25-3.09-5.25-9.27S52.36,125.93,52.36,125.93Z"/><path class="cls-18" d="M52.06,128.21A7.16,7.16,0,0,1,55.3,134c0,3.89-3.24,1.95-3.24,1.95a7.19,7.19,0,0,1-3.23-5.83C48.83,126.26,52.06,128.21,52.06,128.21Z"/><path class="cls-8" d="M52.06,130.61a2.73,2.73,0,0,1,1.24,2.22c0,1.49-1.24.75-1.24.75a2.76,2.76,0,0,1-1.24-2.23C50.82,129.86,52.06,130.61,52.06,130.61Z"/><path class="cls-18" d="M55.6,131.27a8.75,8.75,0,0,0-3.8-5.52s-3.1-1.82-3.79,1l-1.93-1.14c.71-5,5.72-2.11,5.72-2.11a12.8,12.8,0,0,1,5.73,8.88Z"/><path class="cls-8" d="M48.15,122.7v0l4-2.37h0c1.71-.85,4.15.58,4.15.58A12.82,12.82,0,0,1,62,129.51l-4.49,2.88a12.82,12.82,0,0,0-5.72-8.82s-2.17-1.27-3.85-.71A1.12,1.12,0,0,1,48.15,122.7Z"/><path class="cls-4" d="M71.24,135.79c1.93,5.11-.55,6.92-.55,6.92L67.13,145l-1.85-3.82-5.93-9.53,3.32-1.7S69.32,130.68,71.24,135.79Z"/><path class="cls-8" d="M63.12,132.19s5.25,3.09,5.25,9.27-5.25,3.09-5.25,3.09-5.26-3.09-5.26-9.27S63.12,132.19,63.12,132.19Z"/><path class="cls-18" d="M62.82,134.47a7.16,7.16,0,0,1,3.24,5.82c0,3.89-3.24,2-3.24,2a7.19,7.19,0,0,1-3.24-5.83C59.58,132.52,62.82,134.47,62.82,134.47Z"/><path class="cls-8" d="M62.82,136.87a2.74,2.74,0,0,1,1.24,2.23c0,1.48-1.24.74-1.24.74a2.74,2.74,0,0,1-1.24-2.23C61.58,136.12,62.82,136.87,62.82,136.87Z"/><path class="cls-4" d="M82.16,142.29c1.93,5.11-.55,6.91-.55,6.91l-3.56,2.27-1.85-3.81-.93-10.56A7.84,7.84,0,0,1,82.16,142.29Z"/><path class="cls-8" d="M74,138.68s5.25,3.09,5.25,9.27S74,151,74,151s-5.25-3.09-5.25-9.27S74,138.68,74,138.68Z"/><path class="cls-18" d="M73.74,141A7.19,7.19,0,0,1,77,146.79c0,3.89-3.24,1.94-3.24,1.94a7.16,7.16,0,0,1-3.24-5.82C70.5,139,73.74,141,73.74,141Z"/><path class="cls-8" d="M73.74,143.36A2.74,2.74,0,0,1,75,145.59c0,1.49-1.24.74-1.24.74a2.74,2.74,0,0,1-1.24-2.23C72.5,142.62,73.74,143.36,73.74,143.36Z"/><path class="cls-18" d="M74,136a12.8,12.8,0,0,1,5.73,8.87l-1.93-1.14a8.72,8.72,0,0,0-3.8-5.51l-1.61-.93L74,136"/><path class="cls-8" d="M70.38,135.18l-9.7-7L62.33,126l12,6.84c1.71-.85,4.15.58,4.15.58A12.82,12.82,0,0,1,84.22,142l-4.49,2.88A12.82,12.82,0,0,0,74,136.05s-2.17-1.27-3.86-.71Z"/><polygon class="cls-18" points="72.42 137.31 60.68 130.1 60.68 128.2 74.03 136.06 72.42 137.31"/><path class="cls-3" d="M2,85.76s-1.27-.13-1.27.91S.63,97.21.63,97.21l1.21.71a4.23,4.23,0,0,1,1.57-1.64l4.23-2.51a3.2,3.2,0,0,1,2.19-.2l.27-3.14Z"/><polygon class="cls-3" points="10.1 90.44 10.1 93.64 9.31 93.47 10.1 90.44"/><path class="cls-8" d="M2,64.45l22.14-13a12.9,12.9,0,0,1,11.27,1.66L12.18,70.41Z"/><path class="cls-18" d="M2,64.45s4.29-2.16,10.06,1.18.09,4.78.09,4.78Z"/><polygon class="cls-20" points="110.71 94.5 36.24 50.7 12.09 64.86 88.52 109.83 112.72 95.69 110.71 94.5"/><path class="cls-21" d="M12.36,70.52,2,64.45S0,65.09,0,68V84s-.13.56,2,1.74c2.31,1.26,10.17,6,10.17,6Z"/><path class="cls-22" d="M1.55,68.84l8.53,5.08v6.61l-4-2.37a4.2,4.2,0,0,1-4,0L1,76.42l0-7.29A.33.33,0,0,1,1.55,68.84Z"/><path class="cls-23" d="M6.06,77l4,2.36,0,11L1.47,85.37A.88.88,0,0,1,1,84.63V76.42A4.58,4.58,0,0,0,6.06,77Z"/><polygon class="cls-3" points="10.08 73.92 12.1 75.1 12.1 80.59 10.08 79.4 10.08 73.92"/><polygon class="cls-23" points="10.6 82.77 10.6 87.24 12.17 88.33 12.19 83.77 10.6 82.77"/><polygon class="cls-23" points="88.52 109.83 88.52 143.04 12.2 98.04 12.2 64.86 88.52 109.83"/><rect x="49.94" y="48.4" width="0.37" height="83.57" transform="translate(-53.02 87.65) rotate(-59.53)"/><rect x="51.13" y="44.75" width="0.37" height="83.64" transform="translate(-49.32 86.9) rotate(-59.53)"/><rect x="72.96" y="31.87" width="0.37" height="83.73" transform="translate(-27.5 99.38) rotate(-59.53)"/><polygon class="cls-24" points="12.2 91.73 10.1 90.44 10.1 90.96 12.19 92.3 12.2 91.73"/><path class="cls-25" d="M10.1,91,1.23,85.89a1.36,1.36,0,0,1,.8-.13l6.43,3.7,1.94,1.16Z"/><path class="cls-24" d="M1.23,85.89l-.64-.33a1,1,0,0,1,.77-.2l.67.4A1.24,1.24,0,0,0,1.23,85.89Z"/><path class="cls-26" d="M10.05,93.63l.1,0V91a.38.38,0,0,1,.38-.26l-.12-.08c-.19,0-.33.2-.35.33Z"/><path class="cls-26" d="M.71,97.26l.1-10.59A.81.81,0,0,1,1,86.1a1.55,1.55,0,0,1,1.08-.3L2,85.73A1.26,1.26,0,0,0,1,86a.92.92,0,0,0-.26.63L.63,97.21Z"/><polygon points="12.2 73.93 12.2 73.83 0.16 66.76 0.14 66.85 12.2 73.93"/><path class="cls-3" d="M9.52,84.57v2L9,86.21a.42.42,0,0,1-.21-.4l0-.88a.45.45,0,0,1,.71-.36Z"/><path d="M1,69.14a.52.52,0,0,1,.23-.35.39.39,0,0,1,.34,0c.39.22,8.45,5,8.53,5.07l0,0V90.46l-.09,0L10,74c-.48-.29-8.12-4.85-8.51-5.06a.26.26,0,0,0-.25,0c-.13.06-.18.27-.18.27,0,.17,0,14.95,0,15.5a.89.89,0,0,0,.31.73l-.25-.16A1.07,1.07,0,0,1,1,84.66C1,84.1,1,69.3,1,69.14Z"/><polygon points="58.92 92.36 82.95 78.2 82.58 77.97 58.55 92.13 58.92 92.36"/><polygon points="32.07 76.48 56.05 62.34 55.68 62.11 31.71 76.25 32.07 76.48"/><polygon points="14.25 66.09 38.28 51.93 37.91 51.69 13.89 65.86 14.25 66.09"/><polygon points="86.43 108.57 110.52 94.37 110.15 94.14 86.07 108.33 86.43 108.57"/><polygon points="13.9 99.03 14.27 99.25 14.27 66.08 13.9 65.86 13.9 99.03"/><polygon points="31.7 109.53 32.07 109.75 32.07 76.48 31.7 76.25 31.7 109.53"/><polygon points="58.53 125.36 58.91 125.58 58.92 92.37 58.54 92.13 58.53 125.36"/><polygon points="85.91 141.54 86.37 141.77 86.37 108.57 86.07 108.33 85.91 141.54"/><polygon class="cls-8" points="94.98 142.06 94.85 143.53 90.23 146.11 90.3 144.72 94.98 142.06"/><polygon class="cls-14" points="90.3 144.72 89.51 144.27 89.48 145.63 90.23 146.11 90.3 144.72"/><polygon class="cls-14" points="94.98 142.06 94.2 141.54 89.51 144.27 90.3 144.72 94.98 142.06"/><polygon class="cls-17" points="94.98 142.06 94.85 143.53 93.5 144.28 93.57 142.87 94.98 142.06"/><polygon class="cls-17" points="93.38 142.97 93.33 144.38 91.9 145.18 91.97 143.78 93.38 142.97"/><polygon class="cls-16" points="91.81 143.87 91.74 145.27 90.33 146.05 90.4 144.68 91.81 143.87"/><polygon class="cls-23" points="112.76 129.99 112.76 95.59 100.76 102.93 100.76 137.32 112.76 129.99"/><polygon class="cls-23" points="100.62 137.41 100.62 103.01 88.52 109.98 88.52 144.38 100.62 137.41"/><g id="_6cGG6R" data-name="6cGG6R"><path class="cls-27" d="M75.05,128.93a.46.46,0,0,1-.22-.37c0-.12.08-.16.18-.1a.33.33,0,0,1,.12.47Z"/><path class="cls-27" d="M75.74,116.93v6a1.17,1.17,0,0,1,0,.32.3.3,0,0,1-.42.2,1.15,1.15,0,0,1-.25-.12L54,111,28.71,96.05A1.38,1.38,0,0,1,28,94.8v-12a1.43,1.43,0,0,1,0-.29.35.35,0,0,1,.54-.2l.81.48L57.51,99.35,75,109.68a1.34,1.34,0,0,1,.7,1.23Zm-47.19-34v.18q0,6,0,12a.32.32,0,0,0,.18.31l13,7.65,33,19.44.41.24c.1,0,.12,0,.13-.08v-12a.35.35,0,0,0-.19-.33L40.66,90.05,28.74,83Z"/><path class="cls-27" d="M46.67,109.76a.42.42,0,0,1,.31.35c.11.64.26,1.27.39,1.9a.07.07,0,0,0,0,.06l.47-1.6a.51.51,0,0,1,.36.4c.11.63.26,1.24.39,1.86a.22.22,0,0,0,.06.1l.43-1.61s0,0,0,0c.25.13.25.13.17.4-.17.59-.34,1.19-.51,1.81-.15-.09-.29-.13-.33-.34-.12-.66-.28-1.31-.42-2l0-.13-.49,1.67a.45.45,0,0,1-.34-.4C47,111.42,46.84,110.59,46.67,109.76Z"/><path class="cls-27" d="M68,123.35l0-.18c.2,0,.23.09.23.28V125c0,.33-.24.49-.55.37a1.67,1.67,0,0,1-.84-.76l.16-.14c.07.1.13.2.21.3a.92.92,0,0,0,.47.32.21.21,0,0,0,.28-.16,4.63,4.63,0,0,0,.05-.46.41.41,0,0,1-.56,0,1.48,1.48,0,0,1-.61-1.41.36.36,0,0,1,.55-.29,1.2,1.2,0,0,1,.5.45Zm-.9,0a1,1,0,0,0,.54.89.23.23,0,0,0,.35-.18,1,1,0,0,0,0-.35.84.84,0,0,0-.54-.68.22.22,0,0,0-.31.15A.61.61,0,0,0,67.11,123.38Z"/><path class="cls-27" d="M55.89,115a.3.3,0,0,1,.26.35c0,.43,0,.86,0,1.28v.17a2.73,2.73,0,0,0,.38-.23.29.29,0,0,1,.43,0l.12.08-.62.36.67,1.26a.81.81,0,0,1-.45-.4,9.81,9.81,0,0,0-.52-1v.76c-.25-.08-.26-.09-.26-.33V115Z"/><path class="cls-27" d="M49.69,113.25a.91.91,0,0,0,.55.79,1.16,1.16,0,0,0,.3,0l.16.25a.39.39,0,0,1-.48,0,1.38,1.38,0,0,1-.77-1,1.3,1.3,0,0,1,0-.52.34.34,0,0,1,.51-.26,1.27,1.27,0,0,1,.76,1,3,3,0,0,1,.06.47Zm.8.23a.8.8,0,0,0-.47-.75.24.24,0,0,0-.34.19s0,.09,0,.1Z"/><path class="cls-27" d="M60.89,119.75v.13a.41.41,0,0,1-.64.33,1.5,1.5,0,0,1-.77-1.1,1.41,1.41,0,0,1,0-.41.37.37,0,0,1,.51-.3.62.62,0,0,1,.22.1A1.59,1.59,0,0,1,60.89,119.75Zm-.25-.14a1,1,0,0,0-.52-.89.24.24,0,0,0-.38.19,1.29,1.29,0,0,0,0,.34.88.88,0,0,0,.56.7.22.22,0,0,0,.29-.13C60.61,119.74,60.62,119.67,60.64,119.61Z"/><path class="cls-27" d="M54.23,115.82a.56.56,0,0,1,0,.13.4.4,0,0,1-.63.33,1.45,1.45,0,0,1-.77-1.1.92.92,0,0,1,0-.37.39.39,0,0,1,.57-.32,1,1,0,0,1,.48.38A1.57,1.57,0,0,1,54.23,115.82Zm-.25-.15a1,1,0,0,0-.52-.87.24.24,0,0,0-.38.19,1.22,1.22,0,0,0,0,.33.87.87,0,0,0,.51.69.23.23,0,0,0,.35-.17Z"/><path class="cls-27" d="M66.62,123.08a.9.9,0,0,1,0,.23.39.39,0,0,1-.54.31,1.1,1.1,0,0,1-.53-.42,1.5,1.5,0,0,1-.34-1,.4.4,0,0,1,.61-.38,1.51,1.51,0,0,1,.78,1,.5.5,0,0,1,0,.12s0,.1,0,.15Zm-.27-.16a.93.93,0,0,0-.5-.82c-.19-.1-.33,0-.39.18a1,1,0,0,0,.5,1,.25.25,0,0,0,.39-.22Z"/><path class="cls-27" d="M58,117.27a.47.47,0,0,1,.34.38c.08.38.19.74.29,1.11a.33.33,0,0,0,.07.13l.37-1,.27.16c-.18.42-.35.84-.52,1.27-.06.14-.11.29-.18.43s-.17.19-.34.11a.65.65,0,0,1-.16-.09c-.14-.1-.15-.15-.08-.33a.87.87,0,0,0,.18.11s.13,0,.14,0,.19-.27.14-.44l-.51-1.76S58,117.3,58,117.27Z"/><path class="cls-27" d="M62.13,119.69c.25.09.25.09.25.33v1.24s0,.09,0,.15c-.17-.06-.3-.13-.23-.37-.21.17-.38.08-.54,0a.92.92,0,0,1-.41-.75c0-.37,0-.74,0-1.11.21,0,.25.09.25.29s0,.62,0,.93a.57.57,0,0,0,.38.5.18.18,0,0,0,.26-.12.85.85,0,0,0,0-.23Z"/><path class="cls-27" d="M70.16,124.63c-.09.06-.17.08-.25,0a.94.94,0,0,0-.28-.24.13.13,0,0,0-.12,0s0,.1,0,.13a2.11,2.11,0,0,0,.21.31c.11.13.26.23.36.37a.6.6,0,0,1,.14.56.19.19,0,0,1-.26.16,1.12,1.12,0,0,1-.78-.69l.18-.07a1.26,1.26,0,0,0,.11.17,2.69,2.69,0,0,0,.33.26.14.14,0,0,0,.14,0,.14.14,0,0,0,0-.14,2,2,0,0,0-.2-.28c-.12-.13-.27-.24-.38-.38a.59.59,0,0,1-.13-.54.21.21,0,0,1,.26-.17A1,1,0,0,1,70.16,124.63Z"/><path class="cls-27" d="M74.5,127.17c-.12.07-.19.08-.27,0a.76.76,0,0,0-.25-.22.14.14,0,0,0-.14,0,.16.16,0,0,0,0,.16,2,2,0,0,0,.22.29c.1.11.22.2.32.31a.69.69,0,0,1,.17.58.22.22,0,0,1-.3.19,1.2,1.2,0,0,1-.74-.68c.16-.09.14-.09.27.06a1.48,1.48,0,0,0,.33.28.14.14,0,0,0,.15,0,.16.16,0,0,0,0-.15,2,2,0,0,0-.25-.32,4.12,4.12,0,0,1-.35-.37.58.58,0,0,1-.12-.49c0-.15.13-.21.27-.17A1,1,0,0,1,74.5,127.17Z"/><path class="cls-27" d="M55.67,116.08l-.16.09a2,2,0,0,0-.22-.27c-.11-.11-.24-.21-.4-.15s-.16.23-.16.38a1,1,0,0,0,.35.75.36.36,0,0,0,.42.09l.18.31a.37.37,0,0,1-.34,0,1.37,1.37,0,0,1-.83-1,1.35,1.35,0,0,1,0-.6.32.32,0,0,1,.43-.25A1.22,1.22,0,0,1,55.67,116.08Z"/><path class="cls-27" d="M73.14,127.37l.17.31a.31.31,0,0,1-.31,0,1.32,1.32,0,0,1-.85-1,1.31,1.31,0,0,1,0-.59c0-.24.22-.32.45-.25a1.26,1.26,0,0,1,.72.64l-.15.08a3.91,3.91,0,0,0-.36-.35c-.23-.16-.42,0-.44.23a1,1,0,0,0,.4.87A.33.33,0,0,0,73.14,127.37Z"/><path class="cls-27" d="M71.26,125.3l-.35-.2v.29c0,.19,0,.39,0,.58a.36.36,0,0,0,.23.38c.14.05.15.12.14.23v.08a.72.72,0,0,1-.6-.65c0-.31,0-.61,0-.92,0-.1,0-.17-.12-.21a.25.25,0,0,1-.17-.35l.28.16v-.42c.22,0,.26.09.25.29a.35.35,0,0,0,.21.41C71.3,125.05,71.29,125.07,71.26,125.3Z"/><path class="cls-27" d="M64.62,120.19c.26.1.26.1.26.33v2.36c-.26-.09-.26-.09-.26-.33v-2.36Z"/><path class="cls-27" d="M52.67,114.35a2.58,2.58,0,0,0-.28-.12.16.16,0,0,0-.22.12.63.63,0,0,0,0,.19v.83c-.23-.07-.26-.11-.26-.33v-1.39c.22.06.25.09.27.36.15-.15.3-.1.45,0S52.63,114.23,52.67,114.35Z"/><path class="cls-27" d="M63,121.77a.28.28,0,0,1-.24-.34c0-.45,0-.91,0-1.37.21.06.22.08.25.34a.35.35,0,0,1,.46,0c.12.1,0,.23.06.36a1.24,1.24,0,0,0-.22-.12c-.15-.07-.26,0-.28.14a4.58,4.58,0,0,0,0,.53Z"/><path class="cls-27" d="M68.65,123.53c.24.09.24.09.24.31v1.41c-.24-.1-.24-.1-.24-.33Z"/><path class="cls-27" d="M71.8,127c-.24-.08-.25-.09-.25-.31v-1.4c.22.06.25.09.25.3V127Z"/><path class="cls-27" d="M71.86,124.84s0,.08-.06.09a.12.12,0,0,1-.13,0,1.65,1.65,0,0,1-.18-.32s0-.09.06-.11a.15.15,0,0,1,.13,0A.46.46,0,0,1,71.86,124.84Z"/><path class="cls-27" d="M69,123.12s0,.09-.06.1a.15.15,0,0,1-.14,0,.36.36,0,0,1-.16-.32c0-.12.08-.16.18-.1A.43.43,0,0,1,69,123.12Z"/><path class="cls-27" d="M52.24,104.59l.16.06,1,.47a.3.3,0,0,1,.12.15.82.82,0,0,0,.41.56l2.4,1.43.5.28c.18.09.27,0,.28-.17s0-.3,0-.45a.53.53,0,0,0-.28-.47c-.29-.19-.58-.37-.88-.54l-2.2-1.3a2.77,2.77,0,0,1-1.3-1.46,3.39,3.39,0,0,1-.13-2,.92.92,0,0,1,.09-.23.5.5,0,0,1,.61-.27,3.79,3.79,0,0,1,.69.3c1.11.64,2.21,1.29,3.31,2a2.65,2.65,0,0,1,1.34,1.89c0,.11,0,.23,0,.34v.16l-.15-.06-1-.43a.24.24,0,0,1-.16-.2.83.83,0,0,0-.47-.58l-2.59-1.53a1.59,1.59,0,0,0-.29-.15c-.11,0-.18,0-.21.11a.91.91,0,0,0,.41,1.1l3,1.77a2.72,2.72,0,0,1,1.38,1.85,3.62,3.62,0,0,1,0,1.57.63.63,0,0,1-1,.48c-.42-.21-.82-.44-1.23-.67-.81-.48-1.62-1-2.44-1.44a2.84,2.84,0,0,1-1.37-1.67C52.32,105.15,52.3,104.88,52.24,104.59Z"/><path class="cls-27" d="M50.81,100.77l-.8-.36a2.59,2.59,0,0,1-.38-.17.26.26,0,0,1-.11-.16.66.66,0,0,0-.33-.51l-2.93-1.73-.1,0c-.14-.06-.21,0-.24.13a1.49,1.49,0,0,0,0,.21c0,.82,0,1.65,0,2.48a.73.73,0,0,0,.38.69L49.1,103a.72.72,0,0,0,.2.09c.13,0,.21,0,.22-.14s0-.44,0-.65a.33.33,0,0,0-.14-.19q-.77-.46-1.53-.9a.23.23,0,0,1-.14-.25c0-.35.06-.7.08-1,0,0,0,0,0-.05l.12.06,2.72,1.6a.27.27,0,0,1,.15.26c0,.65,0,1.31,0,2a2.59,2.59,0,0,1-.1.62.5.5,0,0,1-.72.4,4.34,4.34,0,0,1-.7-.3q-1.61-.93-3.21-1.89a2.66,2.66,0,0,1-1.33-1.69,5,5,0,0,1-.1-1.09c0-.94,0-1.89,0-2.83a1.59,1.59,0,0,1,.06-.37.58.58,0,0,1,.78-.42,2.66,2.66,0,0,1,.6.26c1.13.67,2.27,1.33,3.39,2a2.6,2.6,0,0,1,1.3,2.09C50.79,100.58,50.8,100.66,50.81,100.77Z"/><path class="cls-27" d="M37,94.05V92.63a3.07,3.07,0,0,1,.06-.52.6.6,0,0,1,.82-.48,1.2,1.2,0,0,1,.37.15c1.2.7,2.4,1.4,3.59,2.11a2.63,2.63,0,0,1,1.28,1.87,7.71,7.71,0,0,1,.06,1.18c0,.68,0,1.37,0,2a3.66,3.66,0,0,1-.1.81.55.55,0,0,1-.78.41,5.13,5.13,0,0,1-.71-.33c-.47-.26-.93-.54-1.39-.81-.64-.39-1.29-.76-1.93-1.16A2.54,2.54,0,0,1,37,95.83c0-.6,0-1.19,0-1.78ZM41.89,97c0-.4,0-.81,0-1.21a.78.78,0,0,0-.43-.76l-2.71-1.6a1.15,1.15,0,0,0-.25-.12c-.12-.06-.19,0-.22.12a.57.57,0,0,0,0,.13c0,.88,0,1.76,0,2.63a.59.59,0,0,0,.26.54l1,.65c.63.38,1.27.75,1.92,1.12.29.16.39.1.39-.24Z"/><path class="cls-27" d="M72.63,118.19c-.48-.28-.94-.54-1.38-.81a.6.6,0,0,1-.16-.22l-.5-1.25a.49.49,0,0,0-.24-.29l-3.25-1.91c-.16-.1-.16-.1-.28.05s-.31.41-.46.61-.08.08-.15,0l-1.35-.8,0,0,.68-.85,2.58-3.2c.08-.1.14-.12.25,0s.51.3.77.45a.62.62,0,0,1,.25.28q1.2,2.94,2.42,5.88c.26.65.53,1.3.8,1.94C72.58,118.07,72.6,118.11,72.63,118.19ZM69.8,114l0,0-1.1-2.74-1.12,1.47Z"/><path class="cls-27" d="M63.08,112.55c-.39-.22-.73-.44-1.09-.63a.35.35,0,0,1-.21-.36c0-1.46,0-2.93,0-4.4a.26.26,0,0,0-.14-.25l-2.17-1.27a.32.32,0,0,1-.19-.33c0-.33,0-.65,0-1,0,0,0-.1,0-.16l.15.07,6,3.51a.32.32,0,0,1,.18.3c0,.32,0,.64,0,1,0,0,0,.11,0,.2l-2.48-1.47Z"/><path class="cls-27" d="M31.16,87.58l.15.09c.32.18.63.38.95.55a.31.31,0,0,1,.17.3V93a.2.2,0,0,0,.12.21c1.14.67,2.27,1.35,3.41,2a.28.28,0,0,1,.17.32c0,.35-.06.71-.08,1.08l-.13-.07q-2.28-1.35-4.57-2.69a.38.38,0,0,1-.21-.37c0-1.9,0-3.81,0-5.72A1.34,1.34,0,0,1,31.16,87.58Z"/></g><path class="cls-28" d="M81.68,1.68,105,15.41a3.68,3.68,0,0,1,1.83,3.19V41.07L87.68,52.34,42.39,25.7V17a2.74,2.74,0,0,1,1.36-2.37L57.43,6.6a58.37,58.37,0,0,1,12-5.41C74.24-.32,77.68-.63,81.68,1.68Z"/><polygon class="cls-29" points="76.04 41.59 71.73 42.47 72.78 46.51 77.54 42.9 76.04 41.59"/><path class="cls-22" d="M105.1,21.6v5.23a5.2,5.2,0,0,1-2.56,4.48L98.13,33.9V25.7Z"/><path class="cls-22" d="M98.13,25.7,90.84,30v3.25a2.82,2.82,0,0,0,4.25,2.43l3-1.79Z"/><path class="cls-30" d="M98.09,23.63l8-4.69V42.12l-7.91,4.11-.06,0ZM106,19.08l-7.81,4.6V46.13L106,42.07Z"/><path class="cls-30" d="M89.38,28.75l8.79-5.17V46.22l-8.79,5.17Zm8.71-5L89.46,28.8V51.25l8.63-5.08Z"/><path class="cls-31" d="M62.86,13.15,85.58,26.52a4.25,4.25,0,0,1,2.1,3.67V52.34L42.39,25.7V17.17A2.38,2.38,0,0,1,44,14.92l8.76-2.86A12.33,12.33,0,0,1,62.86,13.15Z"/><path class="cls-4" d="M82.59,45.78c1.65,3.73-.41,5.16-.41,5.16l-2.66,1.7-1.38-2.85-4.53-7.08S79.26,38.24,82.59,45.78Z"/><path class="cls-8" d="M76.53,43.09A8.51,8.51,0,0,1,80.45,50c0,4.61-3.92,2.3-3.92,2.3a8.48,8.48,0,0,1-3.92-6.91C72.61,40.78,76.53,43.09,76.53,43.09Z"/><path class="cls-18" d="M76.31,44.79a5.36,5.36,0,0,1,2.41,4.35c0,2.9-2.41,1.45-2.41,1.45a5.35,5.35,0,0,1-2.42-4.35C73.89,43.34,76.31,44.79,76.31,44.79Z"/><path class="cls-8" d="M76.31,46.58a2.06,2.06,0,0,1,.92,1.67c0,1.1-.92.55-.92.55a2,2,0,0,1-.93-1.66C75.38,46,76.31,46.58,76.31,46.58Z"/><path class="cls-4" d="M53.16,28c3.91,4,3.22,7.73,3.22,7.73L53.72,37.4l-1.38-2.84L47.7,27.62A3.73,3.73,0,0,1,53.16,28Z"/><path class="cls-8" d="M50.73,27.86a8.49,8.49,0,0,1,3.92,6.92c0,4.61-3.92,2.3-3.92,2.3a8.49,8.49,0,0,1-3.92-6.92C46.81,25.55,50.73,27.86,50.73,27.86Z"/><path class="cls-18" d="M50.51,29.56a5.36,5.36,0,0,1,2.41,4.35c0,2.9-2.41,1.45-2.41,1.45A5.35,5.35,0,0,1,48.09,31C48.09,28.11,50.51,29.56,50.51,29.56Z"/><path class="cls-8" d="M50.51,31.35A2,2,0,0,1,51.43,33c0,1.11-.92.56-.92.56a2.06,2.06,0,0,1-.93-1.67C49.58,30.79,50.51,31.35,50.51,31.35Z"/><path class="cls-29" d="M80,47.92v2.65l7.81,5a1.31,1.31,0,0,0,1.35,0l19-11.16a.9.9,0,0,0,.45-.79v-.88a1.12,1.12,0,0,0-.55-1l-1.19-.7L87.68,52.34V46.2l-1.74-1-7-4,.19,2.8L80,47.92"/><polygon class="cls-5" points="106.84 41.07 108.03 41.77 89.07 53.08 87.68 52.34 106.84 41.07"/><polygon class="cls-29" points="105.28 40.6 105.28 41.6 102.19 43.33 102.19 42.36 105.28 40.6"/><polygon class="cls-29" points="95.89 38.88 95.89 39.69 93.35 41.12 93.34 40.32 95.89 38.88"/><polygon class="cls-31" points="87.68 46.2 106.84 34.92 107.67 35.39 88.45 46.7 87.68 46.2"/><polygon class="cls-32" points="88.45 46.7 88.45 47.85 107.61 36.52 107.67 35.39 88.45 46.7"/><polygon class="cls-29" points="88.45 47.85 87.72 47.45 87.68 46.2 88.45 46.7 88.45 47.85"/><polygon class="cls-29" points="105.1 38 105.1 37.3 100.94 39.68 100.94 40.47 100.42 40.79 101.01 41.11 102.26 40.33 102.26 39.83 103.7 38.87 104.19 39.16 105.05 38.65 105.1 38"/><polygon class="cls-30" points="98.88 41.68 98.96 41.65 98.96 40.51 98.16 40.02 98.08 40.07 98.88 40.55 98.88 41.68"/><polygon class="cls-30" points="106.79 36.99 106.88 36.95 106.88 35.85 106.06 35.38 105.98 35.43 106.79 35.9 106.79 36.99"/><polygon class="cls-30" points="90.18 46.82 90.27 46.77 90.26 45.62 89.46 45.14 89.38 45.18 90.18 45.67 90.18 46.82"/><path class="cls-29" d="M55.05,34.67s.34-5.87-5.1-7.46a2.44,2.44,0,0,0-2.33.54c-.88,1-1,.13-1,.13A3.85,3.85,0,0,1,52,26.3C55.66,28.09,56.54,33,56.54,33Z"/><path class="cls-33" d="M87.68,33.9h0c-.77-.45-1.74.79-1.74,2.46v8.81l1.74,1Z"/><path class="cls-17" d="M87.68,40.05h0a1.14,1.14,0,0,1,1.73,1l0,4.14-1.7,1Z"/><path class="cls-34" d="M88,40.52h0a.67.67,0,0,1,1,.59v.35l-1,.6Z"/><polygon class="cls-34" points="88.04 42.47 89.07 41.87 89.04 43.41 88.04 44.01 88.04 42.47"/><path class="cls-34" d="M87.32,34.82h0c-.45-.27-1,.46-1,1.43v2.89l1,.6Z"/><path class="cls-17" d="M106.84,28.78v6.14l-1.74,1v-5a2,2,0,0,1,1-1.69Z"/><path class="cls-34" d="M106.45,29.62v1.52l-1,.57v-.4a2,2,0,0,1,1-1.69Z"/><polygon class="cls-34" points="106.45 31.56 106.45 33.41 105.49 33.97 105.49 32.13 106.45 31.56"/><path class="cls-30" d="M63.52,38h.08V14.79h0s-3.69-2.54-6.28-2.54h-.2a38,38,0,0,0-7.05,1.54l-5.5,1.74a1.84,1.84,0,0,0-1.43,1.79V26.5h.08V17.32a1.71,1.71,0,0,1,1.37-1.71l5.51-1.74a37.86,37.86,0,0,1,7-1.54h.2c2.47,0,5.94,2.32,6.22,2.51Z"/><polygon class="cls-35" points="85.98 34.97 85.98 30.8 85.96 30.79 64.23 17.89 64.19 17.96 85.9 30.85 85.9 34.88 80.73 33.86 64.31 24.17 64.27 24.24 80.71 33.94 85.98 34.97"/><path class="cls-22" d="M56.87,13.69a7.1,7.1,0,0,1,3,.8l2.1,1.1v9.34l-15.3-9C50.18,15,56.87,13.69,56.87,13.69Z"/><polygon class="cls-29" points="61.55 28.78 61.55 29.8 58.47 28.01 58.47 26.94 61.55 28.78"/><path class="cls-22" d="M52.11,11.79,45.9,14,64.12,3.63s2.22-.87,4.73-1.69Z"/><rect class="cls-31" x="88.39" y="-5.34" width="0.32" height="30.31" transform="translate(35.15 81.14) rotate(-59.51)"/><rect class="cls-31" x="76.2" y="1.84" width="0.32" height="30.31" transform="translate(22.97 74.17) rotate(-59.51)"/><path class="cls-29" d="M42.39,23.65V25.7l3.49,2,1.74,0s-1.06.5-.76,3.28h-1l-3.67-2.12h0a1.11,1.11,0,0,1-.6-1V25.08a1.69,1.69,0,0,1,.78-1.43Z"/><polygon class="cls-30" points="79.23 42.48 79.32 42.48 79.32 24.01 79.3 23.99 64.17 15.02 64.17 38.31 64.25 38.31 64.25 15.17 79.23 24.05 79.23 42.48"/><path class="cls-29" d="M72.78,46.51,55,36.06V34.27a1.34,1.34,0,0,1,1.34-1.39l15.56,8.67,1.23,1.7A4,4,0,0,0,72.78,46.51Z"/><path class="cls-29" d="M80,47.92a6.53,6.53,0,0,0-4-5.44,2.16,2.16,0,0,0-3.23,1.71l-.83-2.64s.93-2.94,5.76-1a7.26,7.26,0,0,1,4.67,6.7Z"/></g></g></svg>